<?xml version="1.0" encoding="utf-8"?>
<!-- Generator: Adobe Illustrator 16.0.0, SVG Export Plug-In . SVG Version: 6.00 Build 0)  -->
<!DOCTYPE svg PUBLIC "-//W3C//DTD SVG 1.1//EN" "http://www.w3.org/Graphics/SVG/1.1/DTD/svg11.dtd">
<svg version="1.1" id="Layer_1" xmlns="http://www.w3.org/2000/svg" xmlns:xlink="http://www.w3.org/1999/xlink" x="0px" y="0px"
	 width="109.841px" height="12.535px" viewBox="0 0 109.841 12.535" enable-background="new 0 0 109.841 12.535"
	 xml:space="preserve">
<g>
	<path fill="#5E5DF7" d="M109.841,12.535c-4.743,0-7.114-2.692-9.208-5.068c-1.888-2.145-3.381-3.838-6.483-3.838
		c-3.104,0-4.597,1.693-6.484,3.838c-2.093,2.376-4.465,5.068-9.207,5.068c-4.743,0-7.114-2.692-9.208-5.068
		c-1.889-2.145-3.38-3.838-6.483-3.838s-4.596,1.693-6.484,3.838c-2.093,2.376-4.465,5.068-9.208,5.068
		c-4.743,0-7.114-2.691-9.207-5.068c-1.889-2.145-3.381-3.838-6.484-3.838s-4.596,1.693-6.485,3.838
		c-2.092,2.376-4.464,5.068-9.207,5.068S8.577,9.842,6.484,7.466C4.595,5.322,3.103,3.628,0,3.628V0
		c4.742,0,7.114,2.693,9.207,5.068c1.889,2.145,3.381,3.838,6.484,3.838s4.596-1.693,6.484-3.838C24.269,2.693,26.641,0,31.383,0
		s7.114,2.693,9.207,5.068c1.889,2.145,3.381,3.838,6.484,3.838s4.595-1.693,6.485-3.838C55.652,2.693,58.024,0,62.767,0
		c4.742,0,7.113,2.693,9.206,5.068c1.89,2.145,3.382,3.838,6.485,3.838c3.103,0,4.595-1.693,6.484-3.838
		C87.034,2.693,89.407,0,94.149,0l0,0c4.742,0,7.114,2.693,9.206,5.068c1.89,2.145,3.382,3.838,6.485,3.838V12.535z"/>
</g>
</svg>
