<?xml version="1.0" encoding="utf-8"?>
<!-- Generator: Adobe Illustrator 16.0.0, SVG Export Plug-In . SVG Version: 6.00 Build 0)  -->
<!DOCTYPE svg PUBLIC "-//W3C//DTD SVG 1.1//EN" "http://www.w3.org/Graphics/SVG/1.1/DTD/svg11.dtd">
<svg version="1.1" id="Layer_1" xmlns="http://www.w3.org/2000/svg" xmlns:xlink="http://www.w3.org/1999/xlink" x="0px" y="0px"
	 width="109.84px" height="12.535px" viewBox="0 0 109.84 12.535" enable-background="new 0 0 109.84 12.535" xml:space="preserve">
<g>
	<path fill="#F3AA00" d="M109.84,12.535c-4.742,0-7.113-2.692-9.207-5.068c-1.889-2.145-3.381-3.838-6.482-3.838
		c-3.104,0-4.598,1.693-6.483,3.838c-2.094,2.376-4.465,5.068-9.207,5.068c-4.744,0-7.114-2.692-9.209-5.068
		c-1.89-2.145-3.379-3.838-6.481-3.838c-3.104,0-4.597,1.693-6.484,3.838c-2.093,2.376-4.465,5.068-9.208,5.068
		c-4.743,0-7.114-2.691-9.207-5.068c-1.889-2.145-3.381-3.838-6.484-3.838c-3.103,0-4.596,1.693-6.485,3.838
		c-2.092,2.376-4.464,5.068-9.207,5.068c-4.743,0-7.116-2.693-9.209-5.069C4.595,5.322,3.103,3.628,0,3.628V0
		c4.742,0,7.114,2.693,9.207,5.068c1.889,2.145,3.381,3.838,6.484,3.838s4.596-1.693,6.484-3.838C24.269,2.693,26.641,0,31.383,0
		c4.742,0,7.114,2.693,9.207,5.068c1.889,2.145,3.381,3.838,6.484,3.838c3.103,0,4.595-1.693,6.485-3.838
		C55.652,2.693,58.023,0,62.768,0c4.74,0,7.111,2.693,9.205,5.068c1.891,2.145,3.383,3.838,6.484,3.838
		c3.104,0,4.596-1.693,6.484-3.838C87.034,2.693,89.407,0,94.148,0l0,0c4.742,0,7.115,2.693,9.207,5.068
		c1.89,2.145,3.381,3.838,6.484,3.838V12.535L109.84,12.535z"/>
</g>
</svg>
